# xmcd
#
# Track frame offsets:
#	150
#	9189
#	23666
#	37552
#	49333
#	59560
#	71800
#	84141
#	95408
#	108496
#	118698
#	131467
#	143614
#	155125
#	168302
#	179181
#	194588
#	204892
#	215905
#	224529
#	233275
#	243465
#	254962
#	267426
#
# Disc length: 3817 seconds
# Revision: 0
# Processed by: cddbd v1.5.2PL0 Copyright (c) Steve Scherf et al.
# Submitted via: dBpowerAMP V12.0
#
DISCID=610ee718
DTITLE=Bobbie Gentry - Country USA - 1967
DYEAR=1900
DGENRE=
TTITLE0=Your Good Girl's Gonna Go Bad
TTITLE1=The Cold Hard Facts Of Life
TTITLE2=Branded Man
TTITLE3=If You're Not Gone Too Long
TTITLE4=Walk Through This World With Me
TTITLE5=Jackson
TTITLE6=Tonight Carmen
TTITLE7=It's Such A Pretty World Today
TTITLE8=It's The Little Things
TTITLE9=Where Does The Good Times Go
TTITLE10=My Elusive Dreams
TTITLE11=By The Time I Get To Phoenix
TTITLE12=Long-Legged Guitar Pickin' Man
TTITLE13=The Fugitive
TTITLE14=I Can't Get There From Here
TTITLE15=Phantom 309
TTITLE16=Break My Mind
TTITLE17=The Party's Over
TTITLE18=Sam's Place
TTITLE19=Rosanna's Going Wild
TTITLE20=Does My Ring Hurt Your Finger
TTITLE21=I Don't Wanna Play House
TTITLE22=Sing Me Back Home
TTITLE23=Ode To Billie Joe
EXTD=
EXTT0=
EXTT1=
EXTT2=
EXTT3=
EXTT4=
EXTT5=
EXTT6=
EXTT7=
EXTT8=
EXTT9=
EXTT10=
EXTT11=
EXTT12=
EXTT13=
EXTT14=
EXTT15=
EXTT16=
EXTT17=
EXTT18=
EXTT19=
EXTT20=
EXTT21=
EXTT22=
EXTT23=
PLAYORDER=
